Coordinates
version=1
nRows=14
nColumns=33
inDegrees=yes

Units are S.I. units (second, meters, Newtons, ...)
Angles are in degrees.

endheader
time	ground_thorax_rot_x	ground_thorax_rot_y	ground_thorax_rot_z	ground_thorax_tx	ground_thorax_ty	ground_thorax_tz	clav_prot_r	clav_elev_r	scapula_abduction_r	scapula_elevation_r	scapula_upward_rot_r	scapula_winging_r	shoulder_elv_r	plane_of_elev_r	axial_rot_r	elbow_flexion_r	pro_sup_r	wrist_flex_r	wrist_dev_r	clav_prot_l	clav_elev_l	scapula_abduction_l	scapula_elevation_l	scapula_upward_rot_l	scapula_winging_l	shoulder_elv_l	plane_of_elev_l	axial_rot_l	elbow_flexion_l	pro_sup_l	wrist_flex_l	wrist_dev_l
      4.35000000	     31.83293556	     28.20764274	     34.33624873	    -40.81024028	    787.94858062	    -44.75325574	     12.09747477	     34.68778171	     23.61854726	     45.00000000	    -45.00000000	  -3322.61009452	  -3166.50226671	     22.76673619	    179.99999979	   1805.92298912	   -170.21450901	     13.32091775	     13.44375958	    -11.07785803	    -45.00000000	    -36.45659767	     45.00000000	    -45.00000000	  -2417.87327936	    -90.69476305	    135.87318993	   -133.16729048	    349.93897058	     46.95910738	     11.93941347	    -16.74574275
      4.36000000	     31.84615504	     27.90981788	     34.20589353	    -43.55266925	    789.64849557	    -44.57226923	     12.21441817	     34.64218956	     23.62907221	     45.00000000	    -45.00000000	  -3322.79427186	  -3166.43671700	     22.83332198	    179.99999979	   1805.88286945	   -171.04786694	     13.30963741	     13.67350403	    -10.86048600	    -45.00000000	    -36.53674515	     45.00000000	    -45.00000000	  -2417.75232003	    -90.58924791	    135.90978719	   -133.38779139	    349.92513228	     46.69942723	     12.05245831	    -16.83252576
      4.37000000	     31.86583178	     27.69736680	     34.04049629	    -46.23136868	    791.39394730	    -44.48133475	     12.13680132	     34.65613591	     23.65684164	     45.00000000	    -45.00000000	  -3323.00479931	  -3166.43724210	     22.84283222	    179.99999979	   1805.94947399	   -171.85589059	     13.25217183	     13.87625126	    -10.75796591	    -45.00000000	    -36.64702967	     45.00000000	    -45.00000000	  -2417.57723828	    -90.49502251	    135.84761686	   -133.32469482	    349.93458870	     46.47071766	     12.10588584	    -16.92603683
      4.38000000	     31.87019969	     27.48484434	     33.89116777	    -48.85413764	    793.18009208	    -44.45321719	     12.17602582	     34.55461345	     23.55393571	     45.00000000	    -45.00000000	  -3323.15526621	  -3166.38685922	     22.87239657	    179.99999979	   1805.86468246	   -172.60434774	     13.22002193	     14.01754444	    -10.57033111	    -45.00000000	    -36.75939882	     45.00000000	    -45.00000000	  -2417.46864539	    -90.39912256	    135.83041922	   -133.39317211	    349.92653064	     46.25679889	     12.16085003	    -16.99827153
      4.39000000	     31.91768980	     27.18681486	     33.74017009	    -51.42683438	    795.00283542	    -44.46015427	     12.10925198	     34.61696603	     23.68002929	     45.00000000	    -45.00000000	  -3323.37886770	  -3166.41973417	     22.91958569	    179.99999979	   1805.90442470	   -173.23049826	     13.18685647	     14.18104531	    -10.49078391	    -45.00000000	    -36.83870202	     45.00000000	    -45.00000000	  -2417.24583486	    -90.32937655	    135.77886630	   -133.28018622	    349.96085690	     46.05260136	     12.23660872	    -17.15100762
      4.40000000	     31.91076292	     27.01226248	     33.57075130	    -53.95603476	    796.85931486	    -44.47359820	     12.15754204	     34.47767583	     23.55894172	     45.00000000	    -45.00000000	  -3323.48752991	  -3166.34209588	     22.92420694	    179.99999979	   1805.84411618	   -173.85006565	     13.16807709	     14.27701939	    -10.28446079	    -45.00000000	    -36.99559587	     45.00000000	    -45.00000000	  -2417.19575227	    -90.18897873	    135.77458440	   -133.26689458	    349.92336812	     45.85648011	     12.27612688	    -17.19984899
      4.41000000	     31.93332855	     26.75930312	     33.44856167	    -56.42918808	    798.74501265	    -44.51447725	     12.11736716	     34.49914667	     23.59423314	     45.00000000	    -45.00000000	  -3323.70845625	  -3166.34962068	     23.00016717	    179.99999979	   1805.78034037	   -174.39306048	     13.18361434	     14.38618006	    -10.18027968	    -45.00000000	    -37.07492716	     45.00000000	    -45.00000000	  -2416.97104953	    -90.10680632	    135.73607137	   -133.22326963	    349.96097977	     45.65361000	     12.34170745	    -17.34259319
      4.42000000	     31.90737566	     26.58058832	     33.30911511	    -58.84623023	    800.65673466	    -44.57059698	     12.16246714	     34.37967014	     23.46956255	     45.00000000	    -45.00000000	  -3323.79038536	  -3166.29179621	     23.00171813	    179.99999979	   1805.75414024	   -174.92355890	     13.16822112	     14.44246828	     -9.97412407	    -45.00000000	    -37.22158316	     45.00000000	    -45.00000000	  -2416.94099454	    -89.97380054	    135.75552196	   -133.17722748	    349.90085168	     45.45195959	     12.38180342	    -17.38367367
      4.43000000	     31.94742890	     26.30012172	     33.18237428	    -61.20590653	    802.59266347	    -44.63935210	     12.10053560	     34.44526513	     23.59054709	     45.00000000	    -45.00000000	  -3324.01546608	  -3166.34426282	     23.05851244	    179.99999979	   1805.76949080	   -175.39271294	     13.18885930	     14.54257080	     -9.90090639	    -45.00000000	    -37.30815171	     45.00000000	    -45.00000000	  -2416.71426980	    -89.89700034	    135.68610314	   -133.04778242	    349.92867589	     45.24226521	     12.46726880	    -17.55391546
      4.44000000	     31.95519726	     26.06356102	     33.01807264	    -63.51251910	    804.55394133	    -44.71302714	     12.08674234	     34.37500942	     23.58514789	     45.00000000	    -45.00000000	  -3324.15430944	  -3166.32391020	     23.10936622	    179.99999979	   1805.72593721	   -175.85904786	     13.21575262	     14.64024423	     -9.68493891	    -45.00000000	    -37.47200284	     45.00000000	    -45.00000000	  -2416.51243963	    -89.81831162	    135.63236102	   -132.96857588	    349.92876934	     45.03307231	     12.54153268	    -17.68032894
      4.45000000	     31.96243271	     25.88973113	     32.88671368	    -65.76235695	    806.53694726	    -44.78658244	     12.09973202	     34.33538937	     23.56784577	     45.00000000	    -45.00000000	  -3324.33651919	  -3166.30524602	     23.13124853	    179.99999979	   1805.65157806	   -176.36227454	     13.25247949	     14.68530524	     -9.57631578	    -45.00000000	    -37.53352378	     45.00000000	    -45.00000000	  -2416.43040399	    -89.69965458	    135.61237545	   -132.85078241	    349.94105323	     44.80827528	     12.58008727	    -17.77543928
      4.46000000	     31.96146612	     25.69920290	     32.74657380	    -67.95432418	    808.54223698	    -44.85865120	     12.11937514	     34.28239254	     23.54534436	     45.00000000	    -45.00000000	  -3324.48397603	  -3166.27515466	     23.15929333	    179.99999979	   1805.58906009	   -176.91637985	     13.28133247	     14.74252124	     -9.43252712	    -45.00000000	    -37.65055922	     45.00000000	    -45.00000000	  -2416.32083230	    -89.57030068	    135.60116121	   -132.78138441	    349.91832832	     44.57180745	     12.62638010	    -17.86218748
      4.47000000	     31.94114431	     25.54515491	     32.67352737	    -70.08245370	    810.56909333	    -44.93006102	     12.13914974	     34.21851875	     23.50570613	     45.00000000	    -45.00000000	  -3324.65908255	  -3166.22637087	     23.17034170	    179.99999979	   1805.53153557	   -177.51920867	     13.29728073	     14.78301688	     -9.28798796	    -45.00000000	    -37.76330137	     45.00000000	    -45.00000000	  -2416.24166086	    -89.44969953	    135.58499454	   -132.71862471	    349.93093293	     44.32006503	     12.65233001	    -17.94114509
      4.48000000	     31.92722276	     25.34166429	     32.57394953	    -72.14357755	    812.62105253	    -45.00325628	     12.09509917	     34.22972392	     23.55912524	     45.00000000	    -45.00000000	  -3324.81981131	  -3166.24576741	     23.23232970	    179.99999979	   1805.55664183	   -178.13308560	     13.30537720	     14.87012950	     -9.07976406	    -45.00000000	    -37.93165082	     45.00000000	    -45.00000000	  -2416.00079504	    -89.37468970	    135.52630542	   -132.59397516	    349.91032036	     44.06833880	     12.72192201	    -18.07401783
